<svg width="17" height="17" viewBox="0 0 17 17" fill="none" xmlns="http://www.w3.org/2000/svg"><path d="M15.1786 0H1.82143C0.815848 0 0 0.815848 0 1.82143V15.1786C0 16.1842 0.815848 17 1.82143 17H15.1786C16.1842 17 17 16.1842 17 15.1786V1.82143C17 0.815848 16.1842 0 15.1786 0ZM10.5225 14.56C10.2038 14.617 10.0862 14.4196 10.0862 14.2565C10.0862 14.0516 10.0938 13.0042 10.0938 12.158C10.0938 11.5661 9.89643 11.1904 9.66496 10.9931C11.069 10.8375 12.5489 10.644 12.5489 8.2192C12.5489 7.52857 12.3022 7.18326 11.9 6.73929C11.9645 6.57612 12.1808 5.90446 11.8355 5.0317C11.308 4.86853 10.1013 5.71094 10.1013 5.71094C9.60045 5.57054 9.05781 5.49844 8.52277 5.49844C7.98772 5.49844 7.44509 5.57054 6.9442 5.71094C6.9442 5.71094 5.7375 4.86853 5.21004 5.0317C4.86473 5.90067 5.07723 6.57232 5.14554 6.73929C4.7433 7.18326 4.55357 7.52857 4.55357 8.2192C4.55357 10.6326 5.96897 10.8375 7.37299 10.9931C7.19085 11.1563 7.02768 11.4371 6.97076 11.8393C6.61027 12.0025 5.68817 12.2833 5.13795 11.3118C4.79263 10.7123 4.17031 10.6629 4.17031 10.6629C3.55558 10.6554 4.12857 11.05 4.12857 11.05C4.53839 11.2397 4.82679 11.9683 4.82679 11.9683C5.19487 13.0953 6.95558 12.7158 6.95558 12.7158C6.95558 13.2433 6.96317 14.1009 6.96317 14.2565C6.96317 14.4196 6.84933 14.617 6.52679 14.56C4.02232 13.7214 2.2692 11.3384 2.2692 8.55312C2.2692 5.06964 4.93304 2.42478 8.41652 2.42478C11.9 2.42478 14.7232 5.06964 14.7232 8.55312C14.727 11.3384 13.027 13.7252 10.5225 14.56ZM6.8 12.2415C6.7279 12.2567 6.6596 12.2263 6.65201 12.177C6.64442 12.1201 6.69375 12.0708 6.76585 12.0556C6.83795 12.048 6.90625 12.0783 6.91384 12.1277C6.92522 12.177 6.87589 12.2263 6.8 12.2415ZM6.43951 12.2074C6.43951 12.2567 6.38259 12.2984 6.3067 12.2984C6.22321 12.306 6.16629 12.2643 6.16629 12.2074C6.16629 12.158 6.22321 12.1163 6.29911 12.1163C6.37121 12.1087 6.43951 12.1504 6.43951 12.2074ZM5.91964 12.1656C5.90446 12.215 5.82857 12.2377 5.76406 12.215C5.69196 12.1998 5.64263 12.1429 5.65781 12.0935C5.67299 12.0442 5.74888 12.0214 5.81339 12.0366C5.88929 12.0594 5.93862 12.1163 5.91964 12.1656ZM5.4529 11.9607C5.41875 12.0025 5.34665 11.9949 5.28973 11.9379C5.23281 11.8886 5.21763 11.8165 5.25558 11.7824C5.28973 11.7406 5.36183 11.7482 5.41875 11.8051C5.46808 11.8545 5.48705 11.9304 5.4529 11.9607ZM5.10759 11.6154C5.07344 11.6382 5.00893 11.6154 4.96719 11.5585C4.92545 11.5016 4.92545 11.4371 4.96719 11.4105C5.00893 11.3763 5.07344 11.4029 5.10759 11.4598C5.14933 11.5167 5.14933 11.585 5.10759 11.6154ZM4.86094 11.2473C4.82679 11.2815 4.76987 11.2625 4.72813 11.2246C4.68638 11.1752 4.67879 11.1183 4.71295 11.0917C4.7471 11.0576 4.80402 11.0766 4.84576 11.1145C4.8875 11.1638 4.89509 11.2208 4.86094 11.2473ZM4.6067 10.9665C4.59152 11.0007 4.54219 11.0083 4.50045 10.9817C4.45112 10.9589 4.42835 10.9172 4.44353 10.883C4.45871 10.8603 4.50045 10.8489 4.54978 10.8679C4.59911 10.8944 4.62188 10.9362 4.6067 10.9665Z"/></svg>
