<svg class="header__scroll" width="58" height="58" viewBox="0 0 58 58" xmlns="http://www.w3.org/2000/svg"><path fill-rule="evenodd" clip-rule="evenodd" d="M50.75 3.625H7.25C6.28859 3.625 5.36656 4.00692 4.68674 4.68674C4.00692 5.36656 3.625 6.28859 3.625 7.25V50.75C3.625 51.7114 4.00692 52.6334 4.68674 53.3133C5.36656 53.9931 6.28859 54.375 7.25 54.375H50.75C51.7114 54.375 52.6334 53.9931 53.3133 53.3133C53.9931 52.6334 54.375 51.7114 54.375 50.75V7.25C54.375 6.28859 53.9931 5.36656 53.3133 4.68674C52.6334 4.00692 51.7114 3.625 50.75 3.625ZM7.25 0C5.32718 0 3.48311 0.763837 2.12348 2.12348C0.763837 3.48311 0 5.32718 0 7.25L0 50.75C0 52.6728 0.763837 54.5169 2.12348 55.8765C3.48311 57.2362 5.32718 58 7.25 58H50.75C52.6728 58 54.5169 57.2362 55.8765 55.8765C57.2362 54.5169 58 52.6728 58 50.75V7.25C58 5.32718 57.2362 3.48311 55.8765 2.12348C54.5169 0.763837 52.6728 0 50.75 0L7.25 0Z"/><path fill-rule="evenodd" clip-rule="evenodd" d="M16.8418 27.7168C17.0101 27.548 17.2101 27.414 17.4303 27.3227C17.6505 27.2313 17.8866 27.1843 18.125 27.1843C18.3634 27.1843 18.5995 27.2313 18.8197 27.3227C19.0399 27.414 19.2399 27.548 19.4083 27.7168L29 37.3121L38.5918 27.7168C38.9321 27.3764 39.3937 27.1852 39.875 27.1852C40.3563 27.1852 40.8179 27.3764 41.1583 27.7168C41.4986 28.0571 41.6898 28.5187 41.6898 29C41.6898 29.4813 41.4986 29.9429 41.1583 30.2833L30.2833 41.1583C30.1149 41.327 29.9149 41.461 29.6947 41.5523C29.4745 41.6437 29.2384 41.6907 29 41.6907C28.7616 41.6907 28.5255 41.6437 28.3053 41.5523C28.0851 41.461 27.8851 41.327 27.7168 41.1583L16.8418 30.2833C16.673 30.1149 16.539 29.9149 16.4477 29.6947C16.3563 29.4745 16.3093 29.2384 16.3093 29C16.3093 28.7616 16.3563 28.5255 16.4477 28.3053C16.539 28.0851 16.673 27.8851 16.8418 27.7168Z"/><path fill-rule="evenodd" clip-rule="evenodd" d="M29 16.3125C29.4807 16.3125 29.9417 16.5035 30.2816 16.8434C30.6215 17.1833 30.8125 17.6443 30.8125 18.125V36.25C30.8125 36.7307 30.6215 37.1917 30.2816 37.5316C29.9417 37.8715 29.4807 38.0625 29 38.0625C28.5193 38.0625 28.0583 37.8715 27.7184 37.5316C27.3785 37.1917 27.1875 36.7307 27.1875 36.25V18.125C27.1875 17.6443 27.3785 17.1833 27.7184 16.8434C28.0583 16.5035 28.5193 16.3125 29 16.3125Z"/></svg>
