<svg width="43" height="43" viewBox="0 0 43 43" fill="none" xmlns="http://www.w3.org/2000/svg"><path fill-rule="evenodd" clip-rule="evenodd" d="M28.6667 21.4999C28.6667 23.4006 27.9116 25.2235 26.5676 26.5675C25.2236 27.9115 23.4007 28.6666 21.5 28.6666C19.5993 28.6666 17.7764 27.9115 16.4324 26.5675C15.0884 25.2235 14.3333 23.4006 14.3333 21.4999C14.3333 19.5992 15.0884 17.7763 16.4324 16.4323C17.7764 15.0883 19.5993 14.3333 21.5 14.3333C23.4007 14.3333 25.2236 15.0883 26.5676 16.4323C27.9116 17.7763 28.6667 19.5992 28.6667 21.4999ZM25.0833 21.4999C25.0833 22.4503 24.7058 23.3617 24.0338 24.0337C23.3618 24.7057 22.4504 25.0833 21.5 25.0833C20.5497 25.0833 19.6382 24.7057 18.9662 24.0337C18.2942 23.3617 17.9167 22.4503 17.9167 21.4999C17.9167 20.5496 18.2942 19.6381 18.9662 18.9661C19.6382 18.2941 20.5497 17.9166 21.5 17.9166C22.4504 17.9166 23.3618 18.2941 24.0338 18.9661C24.7058 19.6381 25.0833 20.5496 25.0833 21.4999Z"/><path fill-rule="evenodd" clip-rule="evenodd" d="M21.5 5.375C31.5172 5.375 39.9362 12.2263 42.3227 21.5C39.9362 30.7737 31.519 37.625 21.5 37.625C11.481 37.625 3.06375 30.7737 0.677246 21.5C3.06375 12.2263 11.481 5.375 21.5 5.375ZM21.5 34.0417C13.4805 34.0417 6.6847 28.7706 4.40212 21.5C6.6847 14.2294 13.4805 8.95833 21.5 8.95833C29.5195 8.95833 36.3153 14.2294 38.5979 21.5C36.3153 28.7706 29.5195 34.0417 21.5 34.0417Z"/></svg>
