<svg width="47" height="43" viewBox="0 0 47 43" fill="white" xmlns="http://www.w3.org/2000/svg">
<g clip-path="url(#clip0)">
<path d="M42.5066 0.298584C43.6347 0.298584 44.6135 0.713322 45.4429 1.5428C46.2724 2.37227 46.6871 3.35105 46.6871 4.47914V29.9606C46.6871 31.1551 46.2724 32.167 45.4429 32.9965C44.6135 33.826 43.6347 34.2407 42.5066 34.2407H27.576V38.5208H31.8561V42.7014H14.8353V38.5208H19.1154V34.2407H4.28437C3.08992 34.2407 2.07796 33.826 1.24849 32.9965C0.41901 32.167 0.00427246 31.1551 0.00427246 29.9606V4.47914C0.00427246 3.35105 0.41901 2.37227 1.24849 1.5428C2.07796 0.713322 3.08992 0.298584 4.28437 0.298584H42.5066ZM42.5066 29.9606V4.47914H4.28437V29.9606H42.5066Z" fill="white"/>
</g>
<defs>
<clipPath id="clip0">
<rect width="46.99" height="43" fill="white"/>
</clipPath>
</defs>
</svg>
