<svg width="58" height="58" viewBox="0 0 58 58" fill="white" xmlns="http://www.w3.org/2000/svg">
<path d="M48.3333 7.25H9.66667C7.00108 7.25 4.83333 9.41775 4.83333 12.0833V45.9167C4.83333 48.5823 7.00108 50.75 9.66667 50.75H48.3333C50.9989 50.75 53.1667 48.5823 53.1667 45.9167V12.0833C53.1667 9.41775 50.9989 7.25 48.3333 7.25ZM9.66667 45.9167V16.9167H48.3333L48.3382 45.9167H9.66667Z" fill="white"/>
<path d="M22.4581 22.4581L13.4995 31.4167L22.4581 40.3753L25.8752 36.9581L20.3338 31.4167L25.8752 25.8753L22.4581 22.4581ZM35.5419 22.4581L32.1248 25.8753L37.6662 31.4167L32.1248 36.9581L35.5419 40.3753L44.5005 31.4167L35.5419 22.4581Z" fill="white"/>
</svg>
