<svg width="24" height="23" viewBox="0 0 24 23" fill="none" xmlns="http://www.w3.org/2000/svg">
<path fill-rule="evenodd" clip-rule="evenodd" d="M5.8875 2.43535C5.80442 2.33619 5.69965 2.25459 5.58013 2.19595C5.4606 2.1373 5.32905 2.10295 5.19419 2.09516C5.05932 2.08738 4.92422 2.10634 4.79782 2.15079C4.67142 2.19524 4.55661 2.26417 4.461 2.353L3.006 3.70676C2.3265 4.33898 2.076 5.23497 2.3745 6.02071C3.60559 9.2759 5.60862 12.2314 8.235 14.668C10.8538 17.1116 14.0304 18.9752 17.529 20.1207C18.3735 20.397 19.3365 20.1654 20.016 19.5331L21.471 18.1794C21.5664 18.0903 21.6404 17.9834 21.688 17.8658C21.7357 17.7481 21.7559 17.6224 21.7474 17.4969C21.7389 17.3714 21.7018 17.249 21.6387 17.1379C21.5755 17.0267 21.4877 16.9293 21.381 16.8521L18.138 14.5047C18.0239 14.4222 17.8912 14.3649 17.7498 14.3371C17.6085 14.3093 17.4622 14.3117 17.322 14.3442L14.244 15.0602C13.8328 15.156 13.402 15.151 12.9935 15.0458C12.585 14.9407 12.2128 14.7389 11.913 14.46L8.46 11.2459C8.16034 10.967 7.94343 10.6207 7.83039 10.2406C7.71736 9.86051 7.71205 9.45968 7.815 9.07712L8.5845 6.2133C8.61941 6.08286 8.62203 5.94674 8.59215 5.81522C8.56226 5.6837 8.50067 5.56022 8.412 5.45408L5.8875 2.43535ZM3.4005 1.36769C3.6466 1.13886 3.94219 0.961338 4.26765 0.846898C4.59311 0.732457 4.94101 0.683717 5.28826 0.70391C5.63551 0.724103 5.97418 0.812767 6.28179 0.964022C6.58941 1.11528 6.85894 1.32566 7.0725 1.58122L9.594 4.59856C10.0575 5.15123 10.221 5.87277 10.038 6.55244L9.2685 9.41766C9.22848 9.56633 9.23052 9.72211 9.27442 9.86983C9.31832 10.0176 9.40258 10.1522 9.519 10.2606L12.975 13.4733C13.0915 13.5817 13.2362 13.6601 13.395 13.7009C13.5538 13.7417 13.7212 13.7436 13.881 13.7064L16.959 12.9905C17.32 12.9066 17.6968 12.9002 18.0609 12.9717C18.425 13.0433 18.7668 13.191 19.0605 13.4036L22.3035 15.7496C23.469 16.5926 23.577 18.1961 22.533 19.1661L21.078 20.5199C20.0385 21.487 18.483 21.9127 17.0325 21.4382C13.3221 20.2231 9.95333 18.2464 7.176 15.6547C4.38996 13.0708 2.26492 9.93639 0.9585 6.48405C0.4485 5.13448 0.906 3.68722 1.9455 2.71866L3.4005 1.3663V1.36769Z" fill="#FFDD3D"/>
</svg>
