<svg width="17" height="17" viewBox="0 0 17 17" fill="none" xmlns="http://www.w3.org/2000/svg"><g clip-path="url(#clip0)"><path d="M11.1085 0H5.89003C1.1279 0 -0.00100708 1.12891 -0.00100708 5.89103V11.1095C-0.00100708 15.8716 1.1279 17.0005 5.89003 17.0005H11.1085C15.8706 17.0005 16.9995 15.8716 16.9995 11.1095V5.89103C16.9995 1.12891 15.8595 0 11.1085 0ZM13.7233 12.1274H12.4892C12.0217 12.1274 11.8777 11.7566 11.0368 10.9044C10.3063 10.1963 9.98278 10.1023 9.80268 10.1023C9.54821 10.1023 9.47596 10.174 9.47596 10.523V11.6381C9.47596 11.9372 9.38193 12.1168 8.59037 12.1168C7.28137 12.1168 5.82893 11.3252 4.81053 9.85044C3.27468 7.68931 2.85446 6.07059 2.85446 5.73591C2.85446 5.55581 2.92618 5.38741 3.27202 5.38741H4.50878C4.82168 5.38741 4.94068 5.53137 5.06234 5.86606C5.67381 7.63141 6.69221 9.17787 7.11243 9.17787C7.26756 9.17787 7.33928 9.10616 7.33928 8.71037V6.88713C7.29199 6.04616 6.84946 5.97391 6.84946 5.67534C6.84946 5.53137 6.96846 5.38741 7.15918 5.38741H9.10409C9.36706 5.38741 9.46375 5.53137 9.46375 5.84109V8.30078C9.46375 8.56641 9.58274 8.66044 9.65446 8.66044C9.80959 8.66044 9.9424 8.56641 10.2298 8.27847C11.1181 7.28238 11.7545 5.74653 11.7545 5.74653C11.8374 5.56644 11.9813 5.39803 12.2942 5.39803H13.531C13.9018 5.39803 13.9847 5.58875 13.9018 5.85438C13.7467 6.57369 12.2332 8.70984 12.2332 8.70984C12.103 8.92553 12.0531 9.01956 12.2332 9.26022C12.366 9.44031 12.7979 9.81378 13.0853 10.1485C13.6139 10.7488 14.0203 11.2524 14.1287 11.6009C14.2503 11.9467 14.0707 12.1268 13.7217 12.1268L13.7233 12.1274Z" /></g><defs><clipPath id="clip0"><rect width="17" height="17" /></clipPath></defs></svg>
