<svg width="24" height="23" viewBox="0 0 24 23" fill="none" xmlns="http://www.w3.org/2000/svg">
<path d="M16.36 13.0258C16.44 12.4118 16.5 11.7977 16.5 11.165C16.5 10.5323 16.44 9.91825 16.36 9.30417H19.74C19.9 9.89964 20 10.523 20 11.165C20 11.807 19.9 12.4304 19.74 13.0258H16.36ZM14.59 18.199C15.19 17.1662 15.65 16.0497 15.97 14.8867H18.92C17.9512 16.4389 16.4141 17.6147 14.59 18.199ZM14.34 13.0258H9.66C9.56 12.4118 9.5 11.7977 9.5 11.165C9.5 10.5323 9.56 9.90894 9.66 9.30417H14.34C14.43 9.90894 14.5 10.5323 14.5 11.165C14.5 11.7977 14.43 12.4118 14.34 13.0258ZM12 18.5711C11.17 17.4546 10.5 16.2172 10.09 14.8867H13.91C13.5 16.2172 12.83 17.4546 12 18.5711ZM8 7.44334H5.08C6.03886 5.88695 7.5748 4.7093 9.4 4.13106C8.8 5.16382 8.35 6.28032 8 7.44334ZM5.08 14.8867H8C8.35 16.0497 8.8 17.1662 9.4 18.199C7.57862 17.6143 6.04485 16.4383 5.08 14.8867ZM4.26 13.0258C4.1 12.4304 4 11.807 4 11.165C4 10.523 4.1 9.89964 4.26 9.30417H7.64C7.56 9.91825 7.5 10.5323 7.5 11.165C7.5 11.7977 7.56 12.4118 7.64 13.0258H4.26ZM12 3.74959C12.83 4.86609 13.5 6.11284 13.91 7.44334H10.09C10.5 6.11284 11.17 4.86609 12 3.74959ZM18.92 7.44334H15.97C15.657 6.29098 15.1936 5.17861 14.59 4.13106C16.43 4.71722 17.96 5.89885 18.92 7.44334ZM12 1.86084C6.47 1.86084 2 6.04772 2 11.165C2 13.6326 3.05357 15.9992 4.92893 17.744C5.85752 18.608 6.95991 19.2934 8.17317 19.7609C9.38642 20.2285 10.6868 20.4692 12 20.4692C14.6522 20.4692 17.1957 19.4889 19.0711 17.744C20.9464 15.9992 22 13.6326 22 11.165C22 9.94317 21.7413 8.73329 21.2388 7.60446C20.7362 6.47562 19.9997 5.44994 19.0711 4.58597C18.1425 3.722 17.0401 3.03666 15.8268 2.56908C14.6136 2.1015 13.3132 1.86084 12 1.86084Z" fill="#FFDD3D"/>
</svg>
