<svg width="17" height="17" viewBox="0 0 17 17" fill="none" xmlns="http://www.w3.org/2000/svg"><path d="M7.3643 13.3145C7.19996 13.5469 7.04437 13.6614 6.89562 13.6614C6.79645 13.6614 6.74002 13.6033 6.72208 13.4881C6.71499 13.4642 6.71499 13.3738 6.71499 13.2V10.1873H5.97408V13.4229C5.97408 13.7122 5.99863 13.9072 6.03948 14.0311C6.11338 14.2385 6.27819 14.3355 6.51713 14.3355C6.7896 14.3355 7.06963 14.1709 7.36406 13.8328V14.2793H8.10616V10.1875H7.3643V13.3145Z" /><path d="M3.28123 9.56063H4.15343V14.2793H4.97793V9.56063H5.86618V8.7876H3.28123V9.56063Z" /><path d="M8.33023 5.98314C8.57177 5.98314 8.68746 5.79189 8.68746 5.40915V3.66949C8.68746 3.28722 8.57177 3.09668 8.33023 3.09668C8.08845 3.09668 7.97252 3.28722 7.97252 3.66949V5.40915C7.97276 5.79165 8.08845 5.98314 8.33023 5.98314Z" /><path d="M10.2553 10.1374C9.98279 10.1374 9.72873 10.2867 9.48955 10.5813V8.7876H8.74792V14.2793H9.48955V13.8822C9.73699 14.1889 9.99176 14.3355 10.2553 14.3355C10.5506 14.3355 10.749 14.1801 10.8481 13.8758C10.8975 13.7023 10.9227 13.4298 10.9227 13.0513V11.4219C10.9227 11.0347 10.8975 10.7641 10.8481 10.5995C10.7487 10.2928 10.5506 10.1374 10.2553 10.1374ZM10.1814 13.1094C10.1814 13.4789 10.0725 13.6612 9.85883 13.6612C9.73699 13.6612 9.61327 13.6031 9.48931 13.4791V10.9848C9.61327 10.8628 9.73676 10.8047 9.85883 10.8047C10.0727 10.8047 10.1814 10.9941 10.1814 11.3631V13.1094Z" /><path d="M12.6166 10.1375C12.2383 10.1375 11.9427 10.277 11.7288 10.5573C11.5711 10.7639 11.4996 11.0835 11.4996 11.5206V12.9543C11.4996 13.3887 11.5803 13.7119 11.7378 13.9162C11.9519 14.1955 12.2471 14.3353 12.6353 14.3353C13.0225 14.3353 13.3263 14.1886 13.5318 13.8921C13.6223 13.7589 13.6815 13.6069 13.7048 13.4475C13.7114 13.3731 13.7207 13.2083 13.7207 12.9698V12.8612H12.9639C12.9639 13.1587 12.9547 13.3233 12.9479 13.3637C12.9056 13.5618 12.7989 13.6609 12.6166 13.6609C12.3621 13.6609 12.2383 13.472 12.2383 13.0933V12.368H13.7209V11.5204C13.7209 11.0831 13.6465 10.7636 13.4914 10.557C13.2838 10.2768 12.9887 10.1375 12.6166 10.1375ZM12.9795 11.751H12.2383V11.3725C12.2383 10.9943 12.3621 10.8049 12.61 10.8049C12.8553 10.8049 12.9795 10.9943 12.9795 11.3725V11.751Z" /><path d="M15.3472 0H1.65278C0.74375 0 0 0.74375 0 1.65278V15.3472C0 16.2563 0.74375 17 1.65278 17H15.3472C16.2563 17 17 16.2563 17 15.3472V1.65278C17 0.74375 16.2563 0 15.3472 0ZM10.0536 2.47208H10.8004V5.51603C10.8004 5.69217 10.8004 5.78354 10.8096 5.80762C10.8262 5.92379 10.8847 5.98306 10.9853 5.98306C11.135 5.98306 11.2925 5.86689 11.4585 5.63219V2.47208H12.2079V6.60639H11.4585V6.15542C11.1603 6.49754 10.8757 6.66376 10.6026 6.66376C10.3613 6.66376 10.1948 6.56578 10.12 6.35611C10.0786 6.23121 10.0536 6.03311 10.0536 5.74128V2.47208ZM7.22335 3.81981C7.22335 3.37804 7.29867 3.05481 7.45804 2.84585C7.66535 2.56346 7.95718 2.42203 8.33024 2.42203C8.70565 2.42203 8.99701 2.56346 9.20456 2.84585C9.36133 3.05481 9.43713 3.37804 9.43713 3.81981V5.26835C9.43713 5.70751 9.36157 6.03335 9.20456 6.24089C8.99701 6.52257 8.70589 6.664 8.33024 6.664C7.95694 6.664 7.66511 6.52257 7.45804 6.24089C7.29867 6.03335 7.22335 5.70751 7.22335 5.26835V3.81981ZM5.21971 1.05825L5.80975 3.23685L6.37618 1.05825H7.21626L6.21704 4.35956V6.60639H5.38593V4.35956C5.31085 3.961 5.14462 3.37781 4.87829 2.60407C4.7031 2.08935 4.52058 1.57226 4.34562 1.05825H5.21971ZM14.42 14.5251C14.2703 15.1775 13.7362 15.6587 13.094 15.7302C11.5725 15.9002 10.0328 15.9011 8.5 15.9002C6.96693 15.9011 5.42725 15.9002 3.90599 15.7302C3.26353 15.6584 2.73039 15.1772 2.58046 14.5251C2.36678 13.5957 2.36678 12.5814 2.36678 11.6252C2.36678 10.668 2.36914 9.65435 2.58306 8.72478C2.73275 8.07264 3.26613 7.59168 3.90858 7.5199C5.42985 7.34943 6.96953 7.34896 8.5026 7.34943C10.0354 7.34896 11.5751 7.34943 13.0966 7.5199C13.7386 7.59168 14.2724 8.07264 14.4224 8.72478C14.6361 9.65458 14.6349 10.668 14.6349 11.6252C14.6351 12.5814 14.6339 13.5957 14.42 14.5251Z" /></svg>
